<?xml version="1.0" encoding="UTF-8"?>
<svg xmlns="http://www.w3.org/2000/svg" xmlns:xlink="http://www.w3.org/1999/xlink" width="48px" height="48px" viewBox="0 0 48 48" version="1.1">
<g id="surface1">
<path style=" stroke:none;fill-rule:nonzero;fill:rgb(92.156863%,34.117648%,34.117648%);fill-opacity:1;" d="M 35.601562 31.316406 C 35.015625 31.488281 34.160156 31.507812 33.238281 31.375 C 32.25 31.230469 31.242188 30.929688 30.25 30.484375 C 32.019531 30.226562 33.386719 30.304688 34.5625 30.722656 C 34.839844 30.820312 35.292969 31.082031 35.601562 31.316406 Z M 25.746094 29.695312 C 25.675781 29.714844 25.605469 29.734375 25.53125 29.753906 C 25.058594 29.882812 24.59375 30.007812 24.148438 30.121094 L 23.546875 30.273438 C 22.339844 30.578125 21.105469 30.890625 19.882812 31.261719 C 20.347656 30.144531 20.777344 29.011719 21.199219 27.90625 C 21.511719 27.089844 21.832031 26.253906 22.160156 25.425781 C 22.328125 25.703125 22.503906 25.980469 22.683594 26.257812 C 23.515625 27.519531 24.554688 28.683594 25.746094 29.695312 Z M 22.671875 17.078125 C 22.75 18.460938 22.453125 19.789062 22.015625 21.0625 C 21.476562 19.484375 21.226562 17.746094 21.898438 16.34375 C 22.070312 15.980469 22.210938 15.789062 22.304688 15.6875 C 22.445312 15.90625 22.632812 16.398438 22.671875 17.078125 Z M 16.359375 34.566406 C 16.058594 35.109375 15.75 35.613281 15.433594 36.09375 C 14.667969 37.242188 13.421875 38.472656 12.777344 38.472656 C 12.714844 38.472656 12.640625 38.464844 12.527344 38.347656 C 12.457031 38.269531 12.445312 38.21875 12.449219 38.144531 C 12.46875 37.71875 13.03125 36.96875 13.84375 36.269531 C 14.578125 35.636719 15.414062 35.070312 16.359375 34.566406 Z M 37.644531 31.375 C 37.546875 29.964844 35.175781 29.0625 35.152344 29.054688 C 34.234375 28.730469 33.238281 28.570312 32.105469 28.570312 C 30.894531 28.570312 29.585938 28.746094 27.910156 29.136719 C 26.417969 28.078125 25.128906 26.753906 24.164062 25.289062 C 23.738281 24.640625 23.355469 23.992188 23.023438 23.359375 C 23.835938 21.414062 24.570312 19.320312 24.4375 16.976562 C 24.328125 15.097656 23.480469 13.835938 22.328125 13.835938 C 21.539062 13.835938 20.855469 14.421875 20.304688 15.578125 C 19.316406 17.636719 19.574219 20.277344 21.074219 23.421875 C 20.535156 24.691406 20.03125 26.003906 19.546875 27.277344 C 18.941406 28.859375 18.320312 30.492188 17.621094 32.046875 C 15.652344 32.824219 14.035156 33.769531 12.6875 34.925781 C 11.804688 35.683594 10.742188 36.84375 10.683594 38.054688 C 10.652344 38.621094 10.847656 39.144531 11.246094 39.5625 C 11.667969 40.007812 12.195312 40.242188 12.777344 40.242188 C 14.703125 40.242188 16.554688 37.597656 16.90625 37.070312 C 17.613281 36.003906 18.273438 34.816406 18.921875 33.445312 C 20.554688 32.855469 22.296875 32.414062 23.980469 31.988281 L 24.585938 31.832031 C 25.039062 31.71875 25.511719 31.589844 25.996094 31.457031 C 26.507812 31.320312 27.035156 31.175781 27.570312 31.039062 C 29.304688 32.140625 31.164062 32.859375 32.980469 33.125 C 34.511719 33.347656 35.871094 33.21875 36.789062 32.738281 C 37.617188 32.304688 37.664062 31.640625 37.644531 31.375 Z M 41.371094 43.492188 C 41.371094 46.070312 39.097656 46.230469 38.636719 46.234375 L 9.292969 46.234375 C 6.722656 46.234375 6.566406 43.945312 6.5625 43.492188 L 6.5625 4.507812 C 6.5625 1.925781 8.839844 1.769531 9.292969 1.761719 L 29.117188 1.761719 L 29.125 1.773438 L 29.125 9.507812 C 29.125 11.0625 30.066406 14 33.617188 14 L 41.304688 14 L 41.371094 14.066406 Z M 39.546875 12.238281 L 33.621094 12.238281 C 31.050781 12.238281 30.894531 9.960938 30.890625 9.507812 L 30.890625 3.542969 Z M 43.132812 43.492188 L 43.132812 13.339844 L 30.890625 1.046875 L 30.890625 0.988281 L 30.832031 0.988281 L 29.847656 0 L 9.292969 0 C 7.738281 0 4.800781 0.941406 4.800781 4.507812 L 4.800781 43.492188 C 4.800781 45.050781 5.738281 48 9.292969 48 L 38.640625 48 C 40.195312 48 43.132812 47.058594 43.132812 43.492188 Z M 43.132812 43.492188 "/>
</g>
</svg>
